inDegrees=yes
name=ik_lifting_orientations
DataType=double
version=3
OpenSimVersion=4.5-2024-01-10-34fd6af
endheader
time	pelvis_tilt	pelvis_list	pelvis_rotation	pelvis_tx	pelvis_ty	pelvis_tz	hip_flexion_r	hip_adduction_r	hip_rotation_r	knee_angle_r	knee_angle_r_beta	ankle_angle_r	subtalar_angle_r	mtp_angle_r	hip_flexion_l	hip_adduction_l	hip_rotation_l	knee_angle_l	knee_angle_l_beta	ankle_angle_l	subtalar_angle_l	mtp_angle_l	lumbar_extension	lumbar_bending	lumbar_rotation	arm_flex_r	arm_add_r	arm_rot_r	elbow_flex_r	pro_sup_r	wrist_flex_r	wrist_dev_r	arm_flex_l	arm_add_l	arm_rot_l	elbow_flex_l	pro_sup_l	wrist_flex_l	wrist_dev_l
1.84	-3.639097310878173	-3.99641971164772	-82.28706779331024	0	0.9399999998679526	0	45.33544385229779	-10.07873377229261	0	60.06978522390533	1.048415533122987	-5.018692084010304	0	0	45.33544385229779	-10.07873377229261	0	60.06978522390533	1.048415533122987	-5.018692084010304	0	0	6.085706324063009	4.794078429298843	-11.31664742478079	18.68966852615361	-38.22140720006607	17.99814840946978	150.1520376872526	1.043388904612804	0	0	0	-12.78108886122225	0	88.97722276943534	1.043388904612804	0	0
1.85	-3.674478937103078	-4.195304586017381	-82.36949792262756	0	0.9399999998679526	0	45.33404396975607	-10.07791012901753	0	60.06950180286229	1.048410586492617	-5.018455053320456	0	0	45.33404396975607	-10.07791012901753	0	60.06950180286229	1.048410586492617	-5.018455053320456	0	0	5.887966000558342	4.903962818460919	-10.93220067917861	21.35755973759576	-36.66814526226551	19.81733583893065	150.1351192989128	1.040081125776414	0	0	0	-12.78664073312664	0	88.98046463983512	1.040081125776414	0	0
1.86	-3.783351859193865	-4.285385598394539	-82.52243646026788	0	0.9399999998679526	0	45.33271829556681	-10.07713399829481	0	60.06923348302978	1.048405903428091	-5.018232097553304	0	0	45.33271829556681	-10.07713399829481	0	60.06923348302978	1.048405903428091	-5.018232097553304	0	0	5.739902580349288	5.044433187820111	-10.36490659330823	23.91627075496688	-34.99367039071451	21.60710783090192	150.079828610293	1.036946300560158	0	0	0	-12.79190495266834	0	88.98353700280423	1.036946300560158	0	0
1.87	-3.856968741923197	-4.495500564114376	-82.41285790592507	0	0.9399999998679526	0	45.33133717988234	-10.07633160040591	0	60.06895385703032	1.048401023033726	-5.018002230481928	0	0	45.33133717988234	-10.07633160040591	0	60.06895385703032	1.048401023033726	-5.018002230481928	0	0	5.491753866055466	5.16185677577684	-9.85903458304152	26.26933908895714	-33.46641669706376	23.21488429587268	149.6586446553613	1.033676470730895	0	0	0	-12.79740020085301	0	88.9867416804436	1.033676470730895	0	0
1.88	-3.902523886862557	-4.633209440148721	-82.44102631643752	0	0.9399999998679526	0	45.32977207300498	-10.07543955112458	0	60.06863496142935	1.048395457255519	-5.017748140509083	0	0	45.32977207300498	-10.07543955112458	0	60.06863496142935	1.048395457255519	-5.017748140509083	0	0	5.356688742045937	5.22308165511255	-9.339688558069817	28.34107508817761	-31.85936647383443	24.6840017981189	148.5475992319438	1.029957259461491	0	0	0	-12.80366728137315	0	88.99038678570257	1.029957259461491	0	0
1.89	-3.908679574850044	-4.884676695210553	-82.37840532956956	0	0.9399999998679526	0	45.32671354699367	-10.07376638765022	0	60.06800293811455	1.048384426367727	-5.017277532877752	0	0	45.32671354699367	-10.07376638765022	0	60.06800293811455	1.048384426367727	-5.017277532877752	0	0	5.030346814927629	5.231783640790501	-8.91970717417365	30.33689383228219	-30.26269155093692	25.83582512557848	145.7738380233801	1.022632883650068	0	0	0	-12.81607695138094	0	88.99756522276482	1.022632883650068	0	0
1.9	-3.887729011481641	-4.944297374897501	-82.51063992328487	0	0.9399999998679526	0	45.32653776619816	-10.073627539081	0	60.06797432094942	1.048383926903973	-5.017235105255788	0	0	45.32653776619816	-10.073627539081	0	60.06797432094942	1.048383926903973	-5.017235105255788	0	0	5.031064057829338	5.212352279496727	-8.407766812174248	32.00045262055723	-28.89020808930821	26.80578881741224	142.9994826193189	1.022250208136971	0	0	0	-12.816678154613	0	88.99794027285245	1.022250208136971	0	0
1.91	-3.856032126470025	-5.063129546710078	-82.38887584187775	0	0.9399999998679526	0	45.32644493025917	-10.07355424445558	0	60.06795921041871	1.04838366317546	-5.017212715433959	0	0	45.32644493025917	-10.07355424445558	0	60.06795921041871	1.04838366317546	-5.017212715433959	0	0	5.12975283528466	5.153106875013292	-8.067630142212277	32.56669603538216	-28.47656181558416	27.06779149810013	142.4385217587841	1.022048103937159	0	0	0	-12.81699566375536	0	88.99813834980101	1.022048103937159	0	0
